<?xml version="1.0" encoding="UTF-8" standalone="no"?>
<!-- Created with Inkscape (http://www.inkscape.org/) -->

<svg
   width="100.51795mm"
   height="100.51794mm"
   viewBox="0 0 100.51795 100.51794"
   version="1.1"
   id="svg5"
   xml:space="preserve"
   inkscape:version="1.2.1 (9c6d41e410, 2022-07-14)"
   sodipodi:docname="frogify.svg"
   inkscape:export-filename="frogigram2.png"
   inkscape:export-xdpi="96"
   inkscape:export-ydpi="96"
   xmlns:inkscape="http://www.inkscape.org/namespaces/inkscape"
   xmlns:sodipodi="http://sodipodi.sourceforge.net/DTD/sodipodi-0.dtd"
   xmlns="http://www.w3.org/2000/svg"
   xmlns:svg="http://www.w3.org/2000/svg"><sodipodi:namedview
     id="namedview7"
     pagecolor="#ffffff"
     bordercolor="#000000"
     borderopacity="0.25"
     inkscape:showpageshadow="2"
     inkscape:pageopacity="0.0"
     inkscape:pagecheckerboard="0"
     inkscape:deskcolor="#d1d1d1"
     inkscape:document-units="mm"
     showgrid="false"
     inkscape:zoom="1.3266288"
     inkscape:cx="298.12409"
     inkscape:cy="584.56442"
     inkscape:window-width="2560"
     inkscape:window-height="1351"
     inkscape:window-x="-9"
     inkscape:window-y="-9"
     inkscape:window-maximized="1"
     inkscape:current-layer="layer1" /><defs
     id="defs2" /><g
     inkscape:label="Layer 1"
     inkscape:groupmode="layer"
     id="layer1"
     transform="translate(-54.741021,-96.26666)"><circle
       style="fill:#1ed760;fill-opacity:1;stroke-width:0.7;stroke-linecap:round;stroke-linejoin:round"
       id="path2635"
       cx="105"
       cy="146.52563"
       r="50.258976" /><g
       id="g2581"
       inkscape:label="frog"
       transform="matrix(1.1676355,0,0,1.1676355,39.362369,0.89585019)"><path
         style="fill:none;fill-opacity:1;stroke:#000000;stroke-width:3.8546;stroke-linecap:round;stroke-linejoin:round;stroke-dasharray:none;stroke-opacity:1"
         d="m 24.822586,138.39283 c 0,0 9.87179,18.75641 30.532048,18.68589 20.66026,-0.0705 31.02564,-18.12179 31.02564,-18.12179 -24.402853,-12.11129 -54.804725,-3.20271 -61.557688,-0.5641 z"
         id="path2294"
         sodipodi:nodetypes="cscc" /><ellipse
         style="fill:#1ed760;fill-opacity:1;stroke:none;stroke-width:0.7;stroke-linecap:round;stroke-linejoin:round;stroke-opacity:1"
         id="path6814"
         cx="56.234447"
         cy="123.0036"
         rx="35.251087"
         ry="26.675152" /><path
         style="fill:none;fill-opacity:1;stroke:#000000;stroke-width:3.8546;stroke-linecap:round;stroke-linejoin:round;stroke-dasharray:none;stroke-opacity:1"
         d="m 36.525644,137.78205 c 0,0 8.39102,-2.60897 19.53205,-2.60897 11.14102,0 22.5641,3.73718 22.5641,3.73718 0,0 6.13461,3.24359 8.17948,-0.21154 2.04488,-3.45513 3.03206,-8.17949 1.48077,-11.84615 -1.55128,-3.66667 -4.58333,-8.25 -7.12179,-10.92949 1.1282,-1.48077 7.54487,-9.66026 1.62179,-15.3718 -5.92307,-5.711538 -12.19871,-4.51282 -14.94871,-1.410255 -2.75,3.102565 -4.23077,6.628205 -4.23077,6.628205 0,0 -4.86539,-2.11538 -7.75641,-2.11538 -2.89103,0 -7.82692,1.83333 -7.82692,1.83333 0,0 -4.01923,-10.083336 -10.50641,-9.730771 -6.48718,0.352565 -9.8718,7.474361 -9.8718,7.474361 0,0 -2.89103,4.58333 -0.14103,8.53205 2.75,3.94872 3.17308,4.23077 3.17308,4.23077 0,0 -9.16666,10.08333 -7.61538,18.1218 1.55128,8.03846 6.69872,5.99359 13.46795,3.66666 z"
         id="path356" /><ellipse
         style="fill:none;fill-opacity:1;stroke:#000000;stroke-width:1.76425;stroke-linecap:round;stroke-linejoin:round;stroke-dasharray:none;stroke-opacity:1"
         id="path1240"
         cx="37.288319"
         cy="107.05417"
         rx="5.4779177"
         ry="5.3594766" /><ellipse
         style="fill:#000000;fill-opacity:1;stroke:none;stroke-width:1.02789;stroke-linecap:round;stroke-linejoin:round;stroke-dasharray:none;stroke-opacity:1"
         id="ellipse1350"
         cx="74.838898"
         cy="107.26267"
         rx="2.6613717"
         ry="2.6038287" /><ellipse
         style="fill:#000000;fill-opacity:1;stroke:none;stroke-width:1.02789;stroke-linecap:round;stroke-linejoin:round;stroke-dasharray:none;stroke-opacity:1"
         id="ellipse1352"
         cx="37.258419"
         cy="107.07665"
         rx="2.6613717"
         ry="2.6038287" /><circle
         style="fill:none;fill-opacity:1;stroke:#000000;stroke-width:1.71691;stroke-linecap:round;stroke-linejoin:round;stroke-dasharray:none;stroke-opacity:1"
         id="path1408"
         cx="48.418571"
         cy="129.12024"
         r="2.2613497" /><circle
         style="fill:none;fill-opacity:1;stroke:#000000;stroke-width:1.71691;stroke-linecap:round;stroke-linejoin:round;stroke-dasharray:none;stroke-opacity:1"
         id="circle9168"
         cx="61.583466"
         cy="129.24103"
         r="2.2613497" /><ellipse
         style="fill:none;fill-opacity:1;stroke:#000000;stroke-width:1.76425;stroke-linecap:round;stroke-linejoin:round;stroke-dasharray:none;stroke-opacity:1"
         id="ellipse9170"
         cx="74.729752"
         cy="107.17495"
         rx="5.4779177"
         ry="5.3594766" /></g></g></svg>
